<svg viewBox="0 0 814.48 121.02" xmlns="http://www.w3.org/2000/svg" xmlns:xlink="http://www.w3.org/1999/xlink" id="Layer_1" overflow="hidden"><defs><linearGradient x1="217.98" y1="41.72" x2="814.48" y2="41.72" gradientUnits="userSpaceOnUse" id="linear-gradient"><stop offset="0" stop-color="#EE0979"/><stop offset="1" stop-color="#FF6A00"/></linearGradient></defs><g><g><path d="M1.87 81.79 1.87 3.6 42.29 3.6C46.15 3.6 49.51 4.04 52.37 4.93 55.23 5.82 57.68 7.07 59.73 8.67 62.09 10.48 63.93 12.71 65.25 15.34 66.57 17.97 67.22 20.9 67.22 24.11 67.22 27.84 66.42 30.9 64.81 33.29 63.2 35.68 60.77 37.58 57.53 38.98L57.53 39.34C61.8 40.71 65.11 43.08 67.46 46.45 69.8 49.82 70.97 53.71 70.97 58.12 70.97 62.53 70.17 66.01 68.56 69.17 66.95 72.33 64.75 74.89 61.94 76.84 59.65 78.45 56.94 79.67 53.81 80.51 50.68 81.35 47.1 81.77 43.06 81.77L1.87 81.77ZM24.24 34.08 38.55 34.08C40.7 34.08 42.45 33.55 43.78 32.49 45.11 31.43 45.78 29.86 45.78 27.77 45.78 26.44 45.47 25.29 44.86 24.33 44.24 23.37 43.38 22.64 42.27 22.12 41.16 21.61 39.89 21.35 38.45 21.35L24.24 21.35 24.24 34.07ZM24.24 63.83 40.55 63.83C41.92 63.83 43.16 63.6 44.27 63.14 45.38 62.68 46.31 62.07 47.07 61.32 47.65 60.67 48.09 59.91 48.38 59.04 48.67 58.17 48.82 57.24 48.82 56.24 48.82 54.57 48.45 53.17 47.72 52.06 46.98 50.95 45.98 50.11 44.72 49.55 43.45 48.99 42.02 48.7 40.41 48.7L24.25 48.7 24.25 63.83Z"/><path d="M117.6 83.33C110.01 83.33 103.48 81.58 98.03 78.07 92.57 74.57 88.39 69.76 85.46 63.65 82.54 57.55 81.07 50.59 81.07 42.8 81.07 37.09 81.95 31.77 83.71 26.85 85.47 21.93 88.03 17.62 91.38 13.95 94.73 10.27 98.79 7.41 103.56 5.36 108.33 3.31 113.74 2.28 119.8 2.28 126.6 2.28 132.54 3.41 137.6 5.67 142.66 7.93 146.73 11.13 149.81 15.29 152.89 19.45 154.84 24.41 155.66 30.19L133.6 30.19C133.19 28.52 132.41 26.98 131.27 25.6 130.12 24.21 128.66 23.11 126.88 22.29 125.1 21.47 123.03 21.06 120.67 21.06 117.93 21.06 115.54 21.6 113.49 22.68 111.44 23.76 109.72 25.27 108.33 27.22 106.94 29.17 105.9 31.47 105.2 34.12 104.5 36.77 104.15 39.67 104.15 42.82 104.15 46.99 104.82 50.75 106.18 54.08 107.53 57.41 109.51 60.04 112.1 61.95 114.7 63.87 117.83 64.82 121.49 64.82 124.33 64.82 126.71 64.36 128.65 63.44 130.58 62.52 132.11 61.26 133.24 59.67 134.37 58.08 135.14 56.28 135.55 54.26L136.01 55.34 124.98 55.34 124.98 39.18 157.09 39.18 157.09 81.81 141.96 81.81 140.22 73.14 140.01 73.14C138.37 75.5 136.4 77.43 134.11 78.94 131.82 80.45 129.29 81.56 126.52 82.27 123.75 82.99 120.77 83.35 117.59 83.35Z"/><path d="M172.33 81.79 172.33 3.6 195.21 3.6 195.21 81.78 172.33 81.78Z"/></g><path d="M288.43 39.49 272.81 81.85 265.27 81.85 265.27 50.98 241.08 50.98 241.08 81.85 217.98 81.85 217.98 2.9 241.08 2.9 241.08 31.86 265.27 31.86 265.27 2.9 288.43 2.9 288.43 39.49ZM406.54 50.76 395.42 50.76C395.18 53.07 394.48 55.14 393.32 56.97 392.16 58.8 390.61 60.25 388.66 61.32 386.71 62.39 384.39 62.93 381.69 62.93 378.27 62.93 375.33 61.98 372.88 60.08 370.43 58.18 368.55 55.57 367.23 52.26 365.92 48.94 365.26 45.18 365.26 40.97 365.26 36.76 365.86 32.9 367.05 29.6 368.24 26.3 370.04 23.7 372.44 21.8 374.84 19.9 377.85 18.95 381.48 18.95 384 18.95 386.23 19.5 388.16 20.58 390.09 21.67 391.63 23.1 392.77 24.88 393.91 26.66 394.57 28.58 394.74 30.66L406.53 30.66 406.53 8.16C405.7 7.45 404.83 6.76 403.91 6.11 401.04 4.18 397.72 2.68 393.94 1.6 390.16 0.53 386.12 4.44089e-16 381.84 4.44089e-16 375.9 4.44089e-16 370.49 1.03 365.6 3.08 360.71 5.14 356.5 8.01 352.96 11.7 349.42 15.4 346.69 19.73 344.77 24.7 342.85 29.67 341.9 35.1 341.9 40.97 341.9 46.84 342.84 52.21 344.72 57.18 346.6 62.15 349.3 66.48 352.83 70.16 356.35 73.84 360.57 76.7 365.47 78.76 370.37 80.81 375.83 81.84 381.84 81.84 387.85 81.84 392.6 81.09 396.91 79.59 400.43 78.37 403.63 76.52 406.53 74.11L406.53 50.77ZM360.83 80.34 361.38 81.84 336.88 81.84 333.1 70.29 306.37 70.29 302.54 81.84 279.59 81.84 308.7 2.9 332.22 2.9 339.49 22.58C339.08 23.45 338.67 24.32 338.32 25.24 336.39 30.26 335.42 35.72 335.42 41.65 335.42 47.58 336.37 52.98 338.27 58 340.17 63.01 342.89 67.38 346.44 71.09 349.99 74.8 354.24 77.69 359.19 79.76 359.72 79.98 360.28 80.15 360.83 80.34ZM327.87 54.39 322.9 38.9C322.49 37.62 322.05 36.2 321.58 34.63 321.11 33.06 320.57 31.11 319.95 28.8L319.74 28.8C319.36 30.14 319.02 31.34 318.73 32.4 318.44 33.45 318.11 34.56 317.75 35.72 317.39 36.88 317.05 37.94 316.74 38.9L311.56 54.39 327.88 54.39ZM457.57 33.98 487.05 2.12 460.53 2.12 436.75 28.02 436.75 2.12 413.65 2.12 413.65 81.07 436.75 81.07 436.75 55.58 441.77 49.88 461.92 81.06 467.08 81.06 474.81 60.1 457.56 33.97ZM546.41 57.68 546.41 81.84 530.83 81.84 527.05 70.29 500.32 70.29 496.49 81.84 473.54 81.84 502.65 2.9 524.13 2.9 524.13 22.64 533.46 22.64 546.41 57.69ZM521.82 54.39 516.85 38.9C516.44 37.62 516 36.2 515.53 34.63 515.06 33.06 514.52 31.11 513.9 28.8L513.69 28.8C513.31 30.14 512.97 31.34 512.68 32.4 512.39 33.45 512.06 34.56 511.7 35.72 511.34 36.88 511 37.94 510.69 38.9L505.51 54.39 521.83 54.39ZM592.45 2.9 530.42 2.9 530.42 18.28 552.69 18.28 552.69 81.84 575.74 81.84 575.74 18.28 592.44 18.28 592.44 2.9ZM667.91 71.66C664.42 67.97 661.75 63.63 659.91 58.66 658.06 53.69 657.14 48.27 657.14 42.4 657.14 36.53 658.06 31.1 659.91 26.11 661.76 21.12 664.43 16.78 667.91 13.08 668.82 12.12 669.78 11.22 670.79 10.37L670.79 2.9 647.63 2.9 647.63 31.86 623.44 31.86 623.44 2.9 600.34 2.9 600.34 81.85 623.44 81.85 623.44 50.98 647.63 50.98 647.63 81.85 670.79 81.85 670.79 74.38C669.78 73.53 668.82 72.63 667.91 71.67ZM736.85 68.59C736.01 69.7 735.12 70.78 734.16 71.79 730.66 75.49 726.42 78.35 721.47 80.39 716.51 82.43 710.98 83.45 704.87 83.45 698.76 83.45 693.2 82.43 688.29 80.39 683.39 78.35 679.19 75.49 675.7 71.79 672.21 68.1 669.54 63.76 667.7 58.79 665.85 53.82 664.93 48.4 664.93 42.53 664.93 36.66 665.85 31.23 667.7 26.24 669.55 21.25 672.22 16.91 675.7 13.21 679.19 9.52 683.38 6.65 688.29 4.61 693.19 2.57 698.72 1.55 704.87 1.55 711.02 1.55 716.51 2.57 721.47 4.61 726.42 6.65 730.66 9.51 734.16 13.21 735.12 14.23 736.01 15.3 736.85 16.42L736.85 68.6ZM721.59 42.53C721.59 39.32 721.25 36.34 720.56 33.6 719.87 30.85 718.82 28.46 717.43 26.42 716.03 24.38 714.3 22.79 712.22 21.65 710.15 20.51 707.73 19.94 704.97 19.94 702.21 19.94 699.79 20.51 697.72 21.65 695.65 22.79 693.91 24.38 692.51 26.42 691.11 28.46 690.06 30.85 689.35 33.6 688.64 36.34 688.29 39.32 688.29 42.53 688.29 45.74 688.64 48.71 689.35 51.44 690.06 54.17 691.11 56.56 692.51 58.62 693.91 60.67 695.64 62.27 697.72 63.41 699.79 64.55 702.21 65.12 704.97 65.12 707.73 65.12 710.15 64.55 712.22 63.41 714.29 62.27 716.03 60.67 717.43 58.62 718.83 56.56 719.87 54.17 720.56 51.44 721.25 48.71 721.59 45.74 721.59 42.53ZM765.37 80.44 765.37 35.79 765.58 35.79C765.96 36.41 766.33 37.05 766.69 37.7 767.05 38.36 767.41 39 767.75 39.64 768.09 40.28 768.45 40.93 768.81 41.58 769.17 42.24 769.54 42.87 769.93 43.5L790.7 80.43 814.48 80.43 814.48 1.49 792.21 1.49 792.21 45.83 792 45.83C791.52 45 791.03 44.16 790.55 43.32 790.06 42.47 789.57 41.63 789.07 40.81 788.57 39.98 788.08 39.14 787.59 38.3 787.1 37.45 786.62 36.62 786.14 35.79L766.2 1.5 743.1 1.5 743.1 80.45 765.37 80.45Z" fill="url(#linear-gradient)"/></g><g><path d="M20.8 94.98 11.86 115.37 8.98 115.37 0 94.98 3.15 94.98 10.49 111.73 17.89 94.98 20.8 94.98Z"/><path d="M37.96 94.98 40.87 94.98 40.87 115.37 37.96 115.37 37.96 94.98Z"/><path d="M63.05 114.89C61.62 114.41 60.5 113.8 59.69 113.04L60.77 110.77C61.55 111.47 62.54 112.04 63.76 112.47 64.97 112.91 66.22 113.13 67.5 113.13 69.19 113.13 70.45 112.84 71.29 112.27 72.12 111.7 72.54 110.94 72.54 109.98 72.54 109.28 72.31 108.71 71.86 108.28 71.4 107.84 70.84 107.51 70.17 107.28 69.5 107.05 68.55 106.78 67.33 106.49 65.8 106.12 64.56 105.75 63.62 105.38 62.68 105.01 61.87 104.44 61.2 103.68 60.53 102.91 60.2 101.88 60.2 100.58 60.2 99.49 60.49 98.51 61.06 97.64 61.63 96.77 62.5 96.07 63.67 95.54 64.84 95.02 66.28 94.75 68.01 94.75 69.21 94.75 70.4 94.91 71.56 95.22 72.72 95.53 73.73 95.98 74.56 96.56L73.6 98.89C72.75 98.35 71.83 97.93 70.86 97.65 69.89 97.37 68.94 97.23 68.01 97.23 66.36 97.23 65.12 97.53 64.3 98.13 63.47 98.73 63.06 99.51 63.06 100.46 63.06 101.16 63.29 101.73 63.76 102.16 64.23 102.59 64.8 102.94 65.49 103.18 66.18 103.42 67.12 103.68 68.3 103.95 69.83 104.32 71.07 104.69 72 105.06 72.93 105.43 73.73 105.99 74.4 106.75 75.07 107.51 75.4 108.53 75.4 109.81 75.4 110.88 75.11 111.85 74.53 112.74 73.95 113.62 73.06 114.32 71.88 114.84 70.7 115.35 69.24 115.61 67.51 115.61 65.98 115.61 64.5 115.37 63.07 114.9Z"/><path d="M94.2 94.98 97.11 94.98 97.11 115.37 94.2 115.37 94.2 94.98Z"/><path d="M121.44 114.25C119.79 113.35 118.49 112.1 117.55 110.51 116.61 108.92 116.14 107.14 116.14 105.18 116.14 103.22 116.61 101.44 117.55 99.85 118.49 98.26 119.79 97.01 121.44 96.11 123.09 95.21 124.95 94.76 127 94.76 129.05 94.76 130.88 95.21 132.53 96.11 134.18 97.01 135.47 98.26 136.4 99.84 137.33 101.42 137.8 103.2 137.8 105.18 137.8 107.16 137.33 108.94 136.4 110.53 135.47 112.11 134.18 113.36 132.53 114.26 130.88 115.16 129.03 115.61 127 115.61 124.97 115.61 123.09 115.16 121.44 114.26ZM131.04 111.99C132.23 111.31 133.18 110.37 133.87 109.18 134.56 107.99 134.9 106.65 134.9 105.17 134.9 103.69 134.56 102.36 133.87 101.17 133.18 99.98 132.24 99.04 131.04 98.36 129.85 97.68 128.5 97.34 127.01 97.34 125.52 97.34 124.16 97.68 122.95 98.36 121.74 99.04 120.78 99.98 120.09 101.17 119.4 102.36 119.06 103.7 119.06 105.17 119.06 106.64 119.4 107.98 120.09 109.18 120.78 110.37 121.73 111.31 122.95 111.99 124.16 112.67 125.52 113.01 127.01 113.01 128.5 113.01 129.85 112.67 131.04 111.99Z"/><path d="M174.37 94.98 174.37 115.37 171.98 115.37 159.75 100.16 159.75 115.37 156.84 115.37 156.84 94.98 159.23 94.98 171.46 110.19 171.46 94.98 174.37 94.98Z"/><path d="M230.12 112.84 230.12 115.37 215.47 115.37 215.47 113.39 223.77 105.38C224.78 104.41 225.46 103.57 225.81 102.86 226.16 102.15 226.33 101.44 226.33 100.72 226.33 99.65 225.95 98.82 225.21 98.23 224.46 97.64 223.39 97.34 221.99 97.34 219.74 97.34 218 98.08 216.78 99.55L214.8 97.83C215.6 96.86 216.64 96.1 217.93 95.56 219.22 95.02 220.66 94.74 222.26 94.74 224.4 94.74 226.09 95.25 227.36 96.27 228.62 97.29 229.25 98.67 229.25 100.42 229.25 101.51 229.02 102.54 228.55 103.51 228.08 104.48 227.2 105.59 225.9 106.83L219.67 112.83 230.13 112.83Z"/><path d="M251.02 114.37C249.77 113.54 248.78 112.35 248.06 110.77 247.34 109.19 246.98 107.33 246.98 105.18 246.98 103.03 247.34 101.16 248.06 99.59 248.78 98.02 249.76 96.82 251.02 95.99 252.27 95.16 253.7 94.75 255.32 94.75 256.94 94.75 258.33 95.16 259.59 95.99 260.84 96.82 261.83 98.01 262.55 99.59 263.27 101.16 263.63 103.03 263.63 105.18 263.63 107.33 263.27 109.2 262.55 110.77 261.83 112.34 260.85 113.54 259.59 114.37 258.34 115.2 256.92 115.61 255.32 115.61 253.72 115.61 252.28 115.2 251.02 114.37ZM259.23 111C260.21 109.66 260.7 107.72 260.7 105.17 260.7 102.62 260.21 100.68 259.23 99.34 258.25 98 256.94 97.33 255.31 97.33 253.68 97.33 252.34 98 251.36 99.34 250.38 100.68 249.89 102.62 249.89 105.17 249.89 107.72 250.38 109.66 251.36 111 252.34 112.34 253.66 113.01 255.31 113.01 256.96 113.01 258.25 112.34 259.23 111Z"/><path d="M298.72 110.36 294.85 110.36 294.85 115.37 292.02 115.37 292.02 110.36 280.69 110.36 280.69 108.32 291.12 94.98 294.27 94.98 284.28 107.86 292.12 107.86 292.12 103.43 294.86 103.43 294.86 107.86 298.73 107.86 298.73 110.37Z"/><path d="M328.52 94.98 328.52 96.96 320.28 115.37 317.19 115.37 325.26 97.51 315.94 97.51 315.94 101.15 313.14 101.15 313.14 94.97 328.52 94.97Z"/><path d="M369.71 93.76 372.3 93.76 372.3 121.02 369.71 121.02 369.71 93.76Z"/><path d="M433.09 94.98 424.15 115.37 421.27 115.37 412.3 94.98 415.45 94.98 422.79 111.73 430.19 94.98 433.1 94.98Z"/><path d="M450.25 94.98 453.16 94.98 453.16 115.37 450.25 115.37 450.25 94.98Z"/><path d="M480.48 106.31 476.75 110.1 476.75 115.37 473.84 115.37 473.84 94.98 476.75 94.98 476.75 106.37 487.82 94.98 491.14 94.98 482.43 104.16 491.69 115.37 488.28 115.37 480.47 106.31Z"/><path d="M510.41 114.89C508.98 114.41 507.86 113.8 507.05 113.04L508.13 110.77C508.91 111.47 509.9 112.04 511.12 112.47 512.33 112.91 513.58 113.13 514.86 113.13 516.55 113.13 517.81 112.84 518.65 112.27 519.48 111.7 519.9 110.94 519.9 109.98 519.9 109.28 519.67 108.71 519.22 108.28 518.76 107.84 518.2 107.51 517.53 107.28 516.86 107.05 515.91 106.78 514.69 106.49 513.16 106.12 511.92 105.75 510.98 105.38 510.04 105.01 509.23 104.44 508.56 103.68 507.89 102.91 507.56 101.88 507.56 100.58 507.56 99.49 507.85 98.51 508.42 97.64 508.99 96.77 509.86 96.07 511.03 95.54 512.2 95.02 513.64 94.75 515.37 94.75 516.57 94.75 517.76 94.91 518.92 95.22 520.08 95.53 521.09 95.98 521.92 96.56L520.96 98.89C520.11 98.35 519.19 97.93 518.22 97.65 517.25 97.37 516.3 97.23 515.37 97.23 513.72 97.23 512.48 97.53 511.66 98.13 510.83 98.73 510.42 99.51 510.42 100.46 510.42 101.16 510.65 101.73 511.12 102.16 511.59 102.59 512.16 102.94 512.85 103.18 513.54 103.42 514.48 103.68 515.66 103.95 517.19 104.32 518.43 104.69 519.36 105.06 520.29 105.43 521.09 105.99 521.76 106.75 522.43 107.51 522.76 108.53 522.76 109.81 522.76 110.88 522.47 111.85 521.89 112.74 521.31 113.62 520.42 114.32 519.24 114.84 518.06 115.35 516.6 115.61 514.87 115.61 513.34 115.61 511.86 115.37 510.43 114.9Z"/><path d="M541.57 94.98 544.48 94.98 544.48 115.37 541.57 115.37 541.57 94.98Z"/><path d="M569.21 97.51 562.22 97.51 562.22 94.98 579.09 94.98 579.09 97.51 572.1 97.51 572.1 115.37 569.22 115.37 569.22 97.51Z"/><path d="M635.74 106.59C636.42 107.45 636.76 108.55 636.76 109.87 636.76 111.64 636.09 113 634.76 113.95 633.43 114.9 631.49 115.38 628.95 115.38L619.22 115.38 619.22 94.99 628.37 94.99C630.7 94.99 632.5 95.46 633.77 96.39 635.04 97.32 635.68 98.61 635.68 100.26 635.68 101.33 635.43 102.25 634.94 103.03 634.45 103.81 633.78 104.4 632.94 104.81 634.12 105.14 635.06 105.74 635.74 106.6ZM622.14 97.34 622.14 103.87 628.11 103.87C629.61 103.87 630.76 103.59 631.56 103.04 632.36 102.49 632.77 101.68 632.77 100.61 632.77 99.54 632.37 98.73 631.56 98.18 630.75 97.63 629.6 97.35 628.11 97.35L622.14 97.35ZM632.57 112.2C633.4 111.66 633.82 110.8 633.82 109.64 633.82 107.37 632.16 106.23 628.84 106.23L622.14 106.23 622.14 113.02 628.84 113.02C630.49 113.02 631.73 112.75 632.57 112.2Z"/><path d="M673.38 94.98 673.38 115.37 670.47 115.37 670.47 106.28 658.76 106.28 658.76 115.37 655.85 115.37 655.85 94.98 658.76 94.98 658.76 103.75 670.47 103.75 670.47 94.98 673.38 94.98Z"/><path d="M707.05 110.27 696.21 110.27 693.97 115.37 690.97 115.37 700.2 94.98 703.08 94.98 712.34 115.37 709.28 115.37 707.04 110.27ZM706.03 107.94 701.63 97.95 697.23 107.94 706.03 107.94Z"/><path d="M743.58 115.37 739.18 109.11C738.64 109.15 738.21 109.17 737.9 109.17L732.86 109.17 732.86 115.37 729.95 115.37 729.95 94.98 737.9 94.98C740.54 94.98 742.62 95.61 744.13 96.87 745.64 98.13 746.4 99.87 746.4 102.08 746.4 103.65 746.01 104.99 745.23 106.1 744.45 107.21 743.35 108.01 741.91 108.52L746.75 115.37 743.58 115.37ZM742.03 105.5C743 104.7 743.49 103.57 743.49 102.09 743.49 100.61 743 99.48 742.03 98.7 741.06 97.91 739.65 97.52 737.81 97.52L732.86 97.52 732.86 106.7 737.81 106.7C739.65 106.7 741.06 106.3 742.03 105.51Z"/><path d="M778.68 110.27 767.84 110.27 765.6 115.37 762.6 115.37 771.83 94.98 774.71 94.98 783.97 115.37 780.91 115.37 778.67 110.27ZM777.66 107.94 773.26 97.95 768.86 107.94 777.66 107.94Z"/><path d="M804.6 97.51 797.61 97.51 797.61 94.98 814.48 94.98 814.48 97.51 807.49 97.51 807.49 115.37 804.61 115.37 804.61 97.51Z"/></g></svg>